<svg xmlns="http://www.w3.org/2000/svg" viewBox="0 0 24 24" fill="none"><path d="M 18 5 L 17.25 5 L 17.25 15 L 18 15 L 18.75 15 L 18.75 5 L 18 5 Z M 18 15 L 17.25 15 C 17.25 16.385 16.904 17.425 16.263 18.115 C 15.632 18.795 14.607 19.25 13 19.25 L 13 20 L 13 20.75 C 14.893 20.75 16.368 20.205 17.362 19.135 C 18.346 18.075 18.75 16.615 18.75 15 L 18 15 Z M 13 20 L 13 19.25 L 5 19.25 L 5 20 L 5 20.75 L 13 20.75 L 13 20 Z M 5 20 L 5 19.25 C 3.393 19.25 2.368 18.795 1.737 18.115 C 1.096 17.425 0.75 16.385 0.75 15 L 0 15 L -0.75 15 C -0.75 16.615 -0.346 18.075 0.638 19.135 C 1.632 20.205 3.107 20.75 5 20.75 L 5 20 Z M 0 15 L 0.75 15 L 0.75 5 L 0 5 L -0.75 5 L -0.75 15 L 0 15 Z M 0 5 L 0.75 5 C 0.75 3.615 1.096 2.575 1.737 1.885 C 2.368 1.205 3.393 0.75 5 0.75 L 5 0 L 5 -0.75 C 3.107 -0.75 1.632 -0.205 0.638 0.865 C -0.346 1.925 -0.75 3.385 -0.75 5 L 0 5 Z M 5 0 L 5 0.75 L 13 0.75 L 13 0 L 13 -0.75 L 5 -0.75 L 5 0 Z M 13 0 L 13 0.75 C 14.607 0.75 15.632 1.205 16.263 1.885 C 16.904 2.575 17.25 3.615 17.25 5 L 18 5 L 18.75 5 C 18.75 3.385 18.346 1.925 17.362 0.865 C 16.368 -0.205 14.893 -0.75 13 -0.75 L 13 0 Z" fill="currentColor" fill-rule="nonzero" transform="matrix(1 0 0 1 3 2)"/><path d="M 7 0 L 7.75 0 C 7.75 -0.414 7.414 -0.75 7 -0.75 L 7 0 Z M 6.16 8.23 L 5.651 8.781 L 5.656 8.786 L 6.16 8.23 Z M 3.84 6.09 L 3.324 6.635 L 3.332 6.641 L 3.84 6.09 Z M 3.16 6.09 L 3.669 6.641 L 3.676 6.634 L 3.16 6.09 Z M 0.84 8.23 L 1.344 8.786 L 1.349 8.781 L 0.84 8.23 Z M 0 0 L 0 -0.75 C -0.414 -0.75 -0.75 -0.414 -0.75 0 L 0 0 Z M 7 0 L 6.25 0 L 6.25 7.86 L 7 7.86 L 7.75 7.86 L 7.75 0 L 7 0 Z M 7 7.86 L 6.25 7.86 C 6.25 7.63 6.516 7.541 6.664 7.674 L 6.16 8.23 L 5.656 8.786 C 6.444 9.499 7.75 8.97 7.75 7.86 L 7 7.86 Z M 6.16 8.23 L 6.668 7.679 L 4.349 5.539 L 3.84 6.09 L 3.332 6.641 L 5.651 8.781 L 6.16 8.23 Z M 3.84 6.09 L 4.356 5.546 C 3.877 5.092 3.123 5.092 2.644 5.546 L 3.16 6.09 L 3.676 6.634 C 3.577 6.729 3.423 6.729 3.324 6.634 L 3.84 6.09 Z M 3.16 6.09 L 2.651 5.539 L 0.332 7.679 L 0.84 8.23 L 1.349 8.781 L 3.668 6.641 L 3.16 6.09 Z M 0.84 8.23 L 0.336 7.674 C 0.484 7.541 0.75 7.63 0.75 7.86 L 0 7.86 L -0.75 7.86 C -0.75 8.97 0.556 9.499 1.344 8.786 L 0.84 8.23 Z M 0 7.86 L 0.75 7.86 L 0.75 0 L 0 0 L -0.75 0 L -0.75 7.86 L 0 7.86 Z M 0 0 L 0 0.75 L 7 0.75 L 7 0 L 7 -0.75 L 0 -0.75 L 0 0 Z" fill="currentColor" fill-rule="nonzero" transform="matrix(1 0 0 1 8.500 2)"/><path d="M 0 -0.75 C -0.414 -0.75 -0.75 -0.414 -0.75 0 C -0.75 0.414 -0.414 0.75 0 0.75 L 0 0 L 0 -0.75 Z M 4.25 0.75 C 4.664 0.75 5 0.414 5 0 C 5 -0.414 4.664 -0.75 4.25 -0.75 L 4.25 0 L 4.25 0.75 Z M 0 0 L 0 0.75 L 4.25 0.75 L 4.25 0 L 4.25 -0.75 L 0 -0.75 L 0 0 Z" fill="currentColor" fill-rule="nonzero" transform="matrix(1 0 0 1 13.250 14)"/><path d="M 0 -0.75 C -0.414 -0.75 -0.75 -0.414 -0.75 0 C -0.75 0.414 -0.414 0.75 0 0.75 L 0 0 L 0 -0.75 Z M 8.5 0.75 C 8.914 0.75 9.25 0.414 9.25 0 C 9.25 -0.414 8.914 -0.75 8.5 -0.75 L 8.5 0 L 8.5 0.75 Z M 0 0 L 0 0.75 L 8.5 0.75 L 8.5 0 L 8.5 -0.75 L 0 -0.75 L 0 0 Z" fill="currentColor" fill-rule="nonzero" transform="matrix(1 0 0 1 9 18)"/></svg>
